<?xml version="1.0" encoding="utf-8"?>
<svg xmlns="http://www.w3.org/2000/svg" style="margin: auto; background: rgb(2, 118, 55); display: block; shape-rendering: auto;" width="360" height="110" preserveAspectRatio="xMidYMid">
<style type="text/css">
  text {
    text-anchor: middle; font-size: 70px; opacity: 0;
  }
</style>
<g transform="translate(180,55)">
  <g transform="translate(0,0)"><g class="path" style="transform-origin: -119.595px -0.938866px; transform: scale(0.91); animation: breath-fb98e20e-9656-46a1-9f7b-8bbbe23b8605 1s linear -0.609231s infinite normal forwards running;"><path d="M15.02-12.74L15.02-12.74L15.02-12.74Q13.09-14.21 11.62-17.22L11.62-17.22L11.62-17.22Q10.15-20.23 10.15-24.01L10.15-24.01L10.15-24.01Q10.15-27.79 11.34-31.01L11.34-31.01L11.34-31.01Q12.53-34.23 14.88-36.86L14.88-36.86L14.88-36.86Q17.22-39.48 21.14-41.06L21.14-41.06L21.14-41.06Q25.06-42.63 29.47-42.63L29.47-42.63L29.47-42.63Q33.88-42.63 37.45-41.97L37.45-41.97L37.45-41.97Q41.02-41.30 43.05-40.57L43.05-40.57L43.05-40.57Q45.08-39.83 46.66-39.17L46.66-39.17L46.66-39.17Q48.23-38.50 49.21-38.12L49.21-38.12L49.21-38.12Q50.19-37.73 50.40-37.66L50.40-37.66L50.40-37.66Q50.61-37.59 51.52-37.24L51.52-37.24L51.52-37.24Q52.43-36.89 52.75-36.82L52.75-36.82L52.75-36.82Q53.06-36.75 53.87-36.47L53.87-36.47L53.87-36.47Q54.67-36.19 55.13-36.12L55.13-36.12L55.13-36.12Q55.58-36.05 56.35-35.88L56.35-35.88L56.35-35.88Q57.12-35.70 57.68-35.67L57.68-35.67L57.68-35.67Q58.24-35.63 59.01-35.56L59.01-35.56L59.01-35.56Q59.78-35.49 60.48-35.49L60.48-35.49L60.48-35.49Q63.91-35.49 66.47-36.65L66.47-36.65L66.47-36.65Q69.02-37.80 70.18-39.20L70.18-39.20L70.18-39.20Q71.33-40.60 72.03-42.42L72.03-42.42L72.03-42.42Q72.87-44.66 72.87-46.48L72.87-46.48L74.41-46.48L74.41-46.48Q74.41-44.80 73.54-42.39L73.54-42.39L73.54-42.39Q72.66-39.97 71.37-38.33L71.37-38.33L71.37-38.33Q70.07-36.68 67.20-35.35L67.20-35.35L67.20-35.35Q64.33-34.02 60.38-34.02L60.38-34.02L60.38-34.02Q56.42-34.02 52.43-35.28L52.43-35.28L52.43-35.28Q47.67-28.56 42.42-8.19L42.42-8.19L42.42-8.19Q39.83 2.03 34.97 6.69L34.97 6.69L34.97 6.69Q30.10 11.34 20.90 11.34L20.90 11.34L20.90 11.34Q11.69 11.34 7.14 5.74L7.14 5.74L7.14 5.74Q3.15 0.77 3.15-5.81L3.15-5.81L3.15-5.81Q3.15-6.65 3.22-7.49L3.22-7.49L4.83-7.49L4.83-6.51L4.83-6.51Q4.83-1.68 7.42 2.94L7.42 2.94L7.42 2.94Q8.54 4.90 10.12 6.34L10.12 6.34L10.12 6.34Q11.69 7.77 14.35 8.75L14.35 8.75L14.35 8.75Q17.01 9.73 20.30 9.73L20.30 9.73L20.30 9.73Q25.76 9.73 28.95 5.32L28.95 5.32L28.95 5.32Q32.13 0.91 35.11-11.73L35.11-11.73L35.11-11.73Q38.08-24.36 41.20-29.79L41.20-29.79L41.20-29.79Q44.31-35.21 50.26-36.05L50.26-36.05L50.26-36.05Q48.44-36.75 46.41-37.63L46.41-37.63L46.41-37.63Q44.38-38.50 42.53-39.17L42.53-39.17L42.53-39.17Q40.67-39.83 37.21-40.50L37.21-40.50L37.21-40.50Q33.74-41.16 29.47-41.16L29.47-41.16L29.47-41.16Q25.20-41.16 21.53-39.62L21.53-39.62L21.53-39.62Q17.85-38.08 15.82-35.56L15.82-35.56L15.82-35.56Q11.76-30.66 11.76-24.22L11.76-24.22L11.76-24.22Q11.76-20.58 13.09-17.82L13.09-17.82L13.09-17.82Q14.42-15.05 16.31-13.72L16.31-13.72L16.31-13.72Q20.16-11.13 23.31-10.78L23.31-10.78L24.64-10.64L24.22-9.10L24.22-9.10Q22.47-9.10 19.71-10.19L19.71-10.19L19.71-10.19Q16.94-11.27 15.02-12.74" fill="#ffffff" stroke="none" stroke-width="none" transform="translate(-158.375,16.631137765737687)" style="fill: rgb(0, 158, 247);"></path></g><g class="path" style="transform-origin: -70.175px -5.73386px; transform: scale(0.91); animation: breath-fb98e20e-9656-46a1-9f7b-8bbbe23b8605 1s linear -0.558462s infinite normal forwards running;"><path d="M99.40-0.77L99.40-0.77L99.40-0.77Q101.08-0.77 102.90-2.73L102.90-2.73L103.95-1.89L103.95-1.89Q103.46-0.91 101.78-0.14L101.78-0.14L101.78-0.14Q100.10 0.63 98.07 0.63L98.07 0.63L98.07 0.63Q91.70 0.63 91.70-5.11L91.70-5.11L91.70-5.11Q91.70-7.56 92.96-13.86L92.96-13.86L92.96-13.86Q94.22-20.16 94.22-22.12L94.22-22.12L94.22-22.12Q94.22-25.13 91.35-25.13L91.35-25.13L91.35-25.13Q88.97-25.13 86.77-21.91L86.77-21.91L86.77-21.91Q84.56-18.69 83.16-13.16L83.16-13.16L80.85 0L72.45 0L80.22-43.96L80.22-43.96Q78.12-43.75 76.72-42.00L76.72-42.00L75.67-42.84L75.67-42.84Q77.77-45.36 80.96-45.36L80.96-45.36L80.96-45.36Q84.14-45.36 85.89-43.75L85.89-43.75L85.89-43.75Q87.64-42.14 87.64-39.20L87.64-39.20L87.64-39.20Q87.64-38.64 87.50-37.38L87.50-37.38L84.56-20.79L84.56-20.79Q87.43-27.23 93.45-27.23L93.45-27.23L93.45-27.23Q97.58-27.23 99.89-24.89L99.89-24.89L99.89-24.89Q102.20-22.54 102.20-18.41L102.20-18.41L102.20-18.41Q102.20-16.24 100.87-10.05L100.87-10.05L100.87-10.05Q99.54-3.85 99.40-0.77" fill="#ffffff" stroke="none" stroke-width="none" transform="translate(-158.375,16.631137765737687)" style="fill: rgb(255, 255, 255);"></path></g><g class="path" style="transform-origin: -44.03px 3.33114px; transform: scale(0.91); animation: breath-fb98e20e-9656-46a1-9f7b-8bbbe23b8605 1s linear -0.507692s infinite normal forwards running;"><path d="M120.19-1.89L120.19-1.89Q118.09 0.63 114.94 0.63L114.94 0.63L114.94 0.63Q111.79 0.63 110.01-0.98L110.01-0.98L110.01-0.98Q108.22-2.59 108.22-5.18L108.22-5.18L108.22-5.18Q108.22-6.09 109.34-12.81L109.34-12.81L111.65-25.34L108.71-25.34L108.85-26.60L111.86-26.60L111.86-26.60Q117.04-26.60 119.49-27.02L119.49-27.02L120.47-27.23L115.64-0.77L115.64-0.77Q117.74-0.98 119.14-2.73L119.14-2.73L120.19-1.89" fill="#ffffff" stroke="none" stroke-width="none" transform="translate(-158.375,16.631137765737687)" style="fill: rgb(0, 158, 247);"></path></g><g class="path" style="transform-origin: -40.74px -20.9239px; transform: scale(0.91); animation: breath-fb98e20e-9656-46a1-9f7b-8bbbe23b8605 1s linear -0.456923s infinite normal forwards running;"><path d="M114.03-33.95L114.03-33.95L114.03-33.95Q112.56-35.42 112.56-37.52L112.56-37.52L112.56-37.52Q112.56-39.62 114.03-41.13L114.03-41.13L114.03-41.13Q115.50-42.63 117.60-42.63L117.60-42.63L117.60-42.63Q119.70-42.63 121.21-41.13L121.21-41.13L121.21-41.13Q122.71-39.62 122.71-37.52L122.71-37.52L122.71-37.52Q122.71-35.42 121.21-33.95L121.21-33.95L121.21-33.95Q119.70-32.48 117.60-32.48L117.60-32.48L117.60-32.48Q115.50-32.48 114.03-33.95" fill="#ffffff" stroke="none" stroke-width="none" transform="translate(-158.375,16.631137765737687)" style="fill: rgb(255, 255, 255);"></path></g><g class="path" style="transform-origin: -18.27px 3.33114px; transform: scale(0.91); animation: breath-fb98e20e-9656-46a1-9f7b-8bbbe23b8605 1s linear -0.406154s infinite normal forwards running;"><path d="M151.27-0.77L151.27-0.77L151.27-0.77Q152.95-0.77 154.77-2.73L154.77-2.73L155.82-1.89L155.82-1.89Q155.33-0.91 153.65-0.14L153.65-0.14L153.65-0.14Q151.97 0.63 149.94 0.63L149.94 0.63L149.94 0.63Q143.57 0.63 143.57-5.11L143.57-5.11L143.57-5.11Q143.57-7.56 144.83-13.86L144.83-13.86L144.83-13.86Q146.09-20.16 146.09-22.12L146.09-22.12L146.09-22.12Q146.09-25.13 143.22-25.13L143.22-25.13L143.22-25.13Q140.91-25.13 138.78-22.12L138.78-22.12L138.78-22.12Q136.64-19.11 135.24-13.86L135.24-13.86L132.86-0.77L132.86-0.77Q135.03-0.98 136.43-2.73L136.43-2.73L137.48-1.89L137.48-1.89Q135.38 0.63 132.23 0.63L132.23 0.63L132.23 0.63Q129.08 0.63 127.30-0.98L127.30-0.98L127.30-0.98Q125.51-2.59 125.51-5.18L125.51-5.18L125.51-5.18Q125.51-6.16 126.63-12.88L126.63-12.88L128.94-25.83L128.94-25.83Q126.84-25.62 125.44-23.87L125.44-23.87L124.39-24.71L124.39-24.71Q126.49-27.23 129.68-27.23L129.68-27.23L129.68-27.23Q132.86-27.23 134.61-25.62L134.61-25.62L134.61-25.62Q136.36-24.01 136.36-21.07L136.36-21.07L136.36-20.65L136.36-20.65Q139.23-27.23 145.32-27.23L145.32-27.23L145.32-27.23Q149.45-27.23 151.76-24.89L151.76-24.89L151.76-24.89Q154.07-22.54 154.07-18.41L154.07-18.41L154.07-18.41Q154.07-16.24 152.74-10.05L152.74-10.05L152.74-10.05Q151.41-3.85 151.27-0.77" fill="#ffffff" stroke="none" stroke-width="none" transform="translate(-158.375,16.631137765737687)" style="fill: rgb(0, 158, 247);"></path></g><g class="path" style="transform-origin: 15.19px -5.73386px; transform: scale(0.91); animation: breath-fb98e20e-9656-46a1-9f7b-8bbbe23b8605 1s linear -0.355385s infinite normal forwards running;"><path d="M169.19-13.51L169.19-13.51L166.67 0L158.34 0L166.25-43.96L166.25-43.96Q164.15-43.75 162.75-42.00L162.75-42.00L161.70-42.84L161.70-42.84Q163.80-45.36 166.99-45.36L166.99-45.36L166.99-45.36Q170.17-45.36 171.92-43.75L171.92-43.75L171.92-43.75Q173.67-42.14 173.67-39.20L173.67-39.20L173.67-39.20Q173.67-38.64 173.53-37.38L173.53-37.38L173.53-37.38Q171.92-28.49 170.03-18.20L170.03-18.20L170.03-18.20Q171.78-22.47 175.07-24.85L175.07-24.85L175.07-24.85Q178.36-27.23 182.07-27.23L182.07-27.23L182.07-27.23Q185.78-27.23 187.29-25.76L187.29-25.76L187.29-25.76Q188.79-24.29 188.79-22.09L188.79-22.09L188.79-22.09Q188.79-19.88 187.46-18.48L187.46-18.48L187.46-18.48Q186.13-17.08 184.00-17.08L184.00-17.08L184.00-17.08Q181.86-17.08 180.71-18.31L180.71-18.31L180.71-18.31Q179.55-19.53 179.55-21.95L179.55-21.95L179.55-21.95Q179.55-24.36 181.23-25.62L181.23-25.62L181.23-25.62Q174.51-24.85 170.52-15.68L170.52-15.68L170.52-15.68Q171.50-15.82 172.20-15.82L172.20-15.82L172.20-15.82Q175.91-15.82 178.05-14.35L178.05-14.35L178.05-14.35Q180.18-12.88 180.81-10.75L180.81-10.75L180.81-10.75Q181.44-8.61 181.72-6.48L181.72-6.48L181.72-6.48Q182.00-4.34 182.63-2.87L182.63-2.87L182.63-2.87Q183.26-1.40 184.87-1.40L184.87-1.40L184.87-1.40Q186.48-1.40 187.39-2.73L187.39-2.73L188.44-1.89L188.44-1.89Q187.95-0.91 186.27-0.14L186.27-0.14L186.27-0.14Q184.59 0.63 181.97 0.63L181.97 0.63L181.97 0.63Q179.34 0.63 177.35-0.70L177.35-0.70L177.35-0.70Q175.35-2.03 174.58-4.03L174.58-4.03L174.58-4.03Q173.81-6.02 173.32-7.98L173.32-7.98L173.32-7.98Q171.99-13.02 169.19-13.51" fill="#ffffff" stroke="none" stroke-width="none" transform="translate(-158.375,16.631137765737687)" style="fill: rgb(255, 255, 255);"></path></g><g class="path" style="transform-origin: 40.74px 3.33114px; transform: scale(0.91); animation: breath-fb98e20e-9656-46a1-9f7b-8bbbe23b8605 1s linear -0.304615s infinite normal forwards running;"><path d="M204.96-1.89L204.96-1.89Q202.86 0.63 199.71 0.63L199.71 0.63L199.71 0.63Q196.56 0.63 194.78-0.98L194.78-0.98L194.78-0.98Q192.99-2.59 192.99-5.18L192.99-5.18L192.99-5.18Q192.99-6.09 194.11-12.81L194.11-12.81L196.42-25.34L193.48-25.34L193.62-26.60L196.63-26.60L196.63-26.60Q201.81-26.60 204.26-27.02L204.26-27.02L205.24-27.23L200.41-0.77L200.41-0.77Q202.51-0.98 203.91-2.73L203.91-2.73L204.96-1.89" fill="#ffffff" stroke="none" stroke-width="none" transform="translate(-158.375,16.631137765737687)" style="fill: rgb(0, 158, 247);"></path></g><g class="path" style="transform-origin: 44.03px -20.9239px; transform: scale(0.91); animation: breath-fb98e20e-9656-46a1-9f7b-8bbbe23b8605 1s linear -0.253846s infinite normal forwards running;"><path d="M198.80-33.95L198.80-33.95L198.80-33.95Q197.33-35.42 197.33-37.52L197.33-37.52L197.33-37.52Q197.33-39.62 198.80-41.13L198.80-41.13L198.80-41.13Q200.27-42.63 202.37-42.63L202.37-42.63L202.37-42.63Q204.47-42.63 205.98-41.13L205.98-41.13L205.98-41.13Q207.48-39.62 207.48-37.52L207.48-37.52L207.48-37.52Q207.48-35.42 205.98-33.95L205.98-33.95L205.98-33.95Q204.47-32.48 202.37-32.48L202.37-32.48L202.37-32.48Q200.27-32.48 198.80-33.95" fill="#ffffff" stroke="none" stroke-width="none" transform="translate(-158.375,16.631137765737687)" style="fill: rgb(255, 255, 255);"></path></g><g class="path" style="transform-origin: 66.5px 3.33114px; transform: scale(0.91); animation: breath-fb98e20e-9656-46a1-9f7b-8bbbe23b8605 1s linear -0.203077s infinite normal forwards running;"><path d="M236.04-0.77L236.04-0.77L236.04-0.77Q237.72-0.77 239.54-2.73L239.54-2.73L240.59-1.89L240.59-1.89Q240.10-0.91 238.42-0.14L238.42-0.14L238.42-0.14Q236.74 0.63 234.71 0.63L234.71 0.63L234.71 0.63Q228.34 0.63 228.34-5.11L228.34-5.11L228.34-5.11Q228.34-7.56 229.60-13.86L229.60-13.86L229.60-13.86Q230.86-20.16 230.86-22.12L230.86-22.12L230.86-22.12Q230.86-25.13 227.99-25.13L227.99-25.13L227.99-25.13Q225.68-25.13 223.55-22.12L223.55-22.12L223.55-22.12Q221.41-19.11 220.01-13.86L220.01-13.86L217.63-0.77L217.63-0.77Q219.80-0.98 221.20-2.73L221.20-2.73L222.25-1.89L222.25-1.89Q220.15 0.63 217.00 0.63L217.00 0.63L217.00 0.63Q213.85 0.63 212.07-0.98L212.07-0.98L212.07-0.98Q210.28-2.59 210.28-5.18L210.28-5.18L210.28-5.18Q210.28-6.16 211.40-12.88L211.40-12.88L213.71-25.83L213.71-25.83Q211.61-25.62 210.21-23.87L210.21-23.87L209.16-24.71L209.16-24.71Q211.26-27.23 214.45-27.23L214.45-27.23L214.45-27.23Q217.63-27.23 219.38-25.62L219.38-25.62L219.38-25.62Q221.13-24.01 221.13-21.07L221.13-21.07L221.13-20.65L221.13-20.65Q224.00-27.23 230.09-27.23L230.09-27.23L230.09-27.23Q234.22-27.23 236.53-24.89L236.53-24.89L236.53-24.89Q238.84-22.54 238.84-18.41L238.84-18.41L238.84-18.41Q238.84-16.24 237.51-10.05L237.51-10.05L237.51-10.05Q236.18-3.85 236.04-0.77" fill="#ffffff" stroke="none" stroke-width="none" transform="translate(-158.375,16.631137765737687)" style="fill: rgb(0, 158, 247);"></path></g><g class="path" style="transform-origin: 99.645px 9.45614px; transform: scale(0.91); animation: breath-fb98e20e-9656-46a1-9f7b-8bbbe23b8605 1s linear -0.152308s infinite normal forwards running;"><path d="M266.91 7.63L266.91 7.63L266.91 7.63Q269.43 7.63 271.25 5.67L271.25 5.67L272.23 6.51L272.23 6.51Q270.55 8.89 266.91 8.89L266.91 8.89L266.91 8.89Q265.37 8.89 263.76 8.54L263.76 8.54L263.76 8.54Q259.00 12.88 251.58 12.88L251.58 12.88L251.58 12.88Q247.17 12.88 244.76 11.38L244.76 11.38L244.76 11.38Q242.34 9.87 242.34 7.46L242.34 7.46L242.34 7.46Q242.34 5.04 243.85 3.61L243.85 3.61L243.85 3.61Q245.35 2.17 249.20 2.17L249.20 2.17L249.20 2.17Q253.05 2.17 259.35 5.32L259.35 5.32L261.52-6.30L261.52-6.30Q258.37-0.49 253.40-0.49L253.40-0.49L253.40-0.49Q243.88-0.49 243.88-9.87L243.88-9.87L243.88-9.87Q243.88-17.71 247.84-22.47L247.84-22.47L247.84-22.47Q251.79-27.23 257.95-27.23L257.95-27.23L257.95-27.23Q261.52-27.23 263.48-25.06L263.48-25.06L263.48-25.06Q264.04-24.43 264.60-23.17L264.60-23.17L265.23-26.60L265.23-26.60Q270.41-26.60 272.79-27.02L272.79-27.02L273.70-27.23L269.08-1.40L269.08-1.40Q268.03 4.06 264.88 7.42L264.88 7.42L264.88 7.42Q265.79 7.63 266.91 7.63zM251.79-7.70L251.79-7.70Q251.79-4.48 252.42-3.40L252.42-3.40L252.42-3.40Q253.05-2.31 254.80-2.31L254.80-2.31L254.80-2.31Q256.55-2.31 258.37-4.20L258.37-4.20L258.37-4.20Q260.19-6.09 261.00-7.74L261.00-7.74L261.00-7.74Q261.80-9.38 262.36-10.92L262.36-10.92L263.83-18.97L263.83-19.46L263.83-19.46Q263.83-25.90 257.95-25.90L257.95-25.90L257.95-25.90Q255.71-25.90 253.75-19.81L253.75-19.81L253.75-19.81Q251.79-13.72 251.79-7.70L251.79-7.70zM251.30 11.48L251.30 11.48L251.30 11.48Q256.90 11.48 258.86 6.65L258.86 6.65L257.88 6.16L257.88 6.16Q257.04 5.74 256.87 5.64L256.87 5.64L256.87 5.64Q256.69 5.53 255.92 5.18L255.92 5.18L255.92 5.18Q255.15 4.83 254.80 4.73L254.80 4.73L254.80 4.73Q254.45 4.62 253.72 4.34L253.72 4.34L253.72 4.34Q252.98 4.06 252.49 3.96L252.49 3.96L252.49 3.96Q252.00 3.85 251.37 3.71L251.37 3.71L251.37 3.71Q250.32 3.50 248.29 3.50L248.29 3.50L248.29 3.50Q246.26 3.50 245.04 4.48L245.04 4.48L245.04 4.48Q243.81 5.46 243.81 7.35L243.81 7.35L243.81 7.35Q243.81 9.24 245.84 10.36L245.84 10.36L245.84 10.36Q247.87 11.48 251.30 11.48" fill="#ffffff" stroke="none" stroke-width="none" transform="translate(-158.375,16.631137765737687)" style="fill: rgb(255, 255, 255);"></path></g><g class="path" style="transform-origin: 123.27px 12.1161px; transform: scale(0.91); animation: breath-fb98e20e-9656-46a1-9f7b-8bbbe23b8605 1s linear -0.101538s infinite normal forwards running;"><path d="M278.04-0.91L278.04-0.91L278.04-0.91Q276.57-2.38 276.57-4.48L276.57-4.48L276.57-4.48Q276.57-6.58 278.04-8.09L278.04-8.09L278.04-8.09Q279.51-9.59 281.61-9.59L281.61-9.59L281.61-9.59Q283.71-9.59 285.22-8.09L285.22-8.09L285.22-8.09Q286.72-6.58 286.72-4.48L286.72-4.48L286.72-4.48Q286.72-2.38 285.22-0.91L285.22-0.91L285.22-0.91Q283.71 0.56 281.61 0.56L281.61 0.56L281.61 0.56Q279.51 0.56 278.04-0.91" fill="#ffffff" stroke="none" stroke-width="none" transform="translate(-158.375,16.631137765737687)" style="fill: rgb(0, 158, 247);"></path></g><g class="path" style="transform-origin: 139.86px 12.1161px; transform: scale(0.91); animation: breath-fb98e20e-9656-46a1-9f7b-8bbbe23b8605 1s linear -0.0507692s infinite normal forwards running;"><path d="M294.63-0.91L294.63-0.91L294.63-0.91Q293.16-2.38 293.16-4.48L293.16-4.48L293.16-4.48Q293.16-6.58 294.63-8.09L294.63-8.09L294.63-8.09Q296.10-9.59 298.20-9.59L298.20-9.59L298.20-9.59Q300.30-9.59 301.81-8.09L301.81-8.09L301.81-8.09Q303.31-6.58 303.31-4.48L303.31-4.48L303.31-4.48Q303.31-2.38 301.81-0.91L301.81-0.91L301.81-0.91Q300.30 0.56 298.20 0.56L298.20 0.56L298.20 0.56Q296.10 0.56 294.63-0.91" fill="#ffffff" stroke="none" stroke-width="none" transform="translate(-158.375,16.631137765737687)" style="fill: rgb(255, 255, 255);"></path></g><g class="path" style="transform-origin: 156.45px 12.1161px; transform: scale(0.91); animation: breath-fb98e20e-9656-46a1-9f7b-8bbbe23b8605 1s linear 0s infinite normal forwards running;"><path d="M311.22-0.91L311.22-0.91L311.22-0.91Q309.75-2.38 309.75-4.48L309.75-4.48L309.75-4.48Q309.75-6.58 311.22-8.09L311.22-8.09L311.22-8.09Q312.69-9.59 314.79-9.59L314.79-9.59L314.79-9.59Q316.89-9.59 318.39-8.09L318.39-8.09L318.39-8.09Q319.90-6.58 319.90-4.48L319.90-4.48L319.90-4.48Q319.90-2.38 318.39-0.91L318.39-0.91L318.39-0.91Q316.89 0.56 314.79 0.56L314.79 0.56L314.79 0.56Q312.69 0.56 311.22-0.91" fill="#ffffff" stroke="none" stroke-width="none" transform="translate(-158.375,16.631137765737687)" style="fill: rgb(0, 158, 247);"></path></g></g>
</g>
<style id="breath-fb98e20e-9656-46a1-9f7b-8bbbe23b8605" data-anikit="">@keyframes breath-fb98e20e-9656-46a1-9f7b-8bbbe23b8605
{
  0% {
    animation-timing-function: cubic-bezier(0.9647,0.2413,-0.0705,0.7911);
    transform: scale(0.9099999999999999);
  }
  51% {
    animation-timing-function: cubic-bezier(0.9226,0.2631,-0.0308,0.7628);
    transform: scale(1.02994);
  }
  100% {
    transform: scale(0.9099999999999999);
  }
}</style><style id="breath-fb98e20e-9656-46a1-9f7b-8bbbe23b8605" data-anikit="">@keyframes breath-fb98e20e-9656-46a1-9f7b-8bbbe23b8605
{
  0% {
    animation-timing-function: cubic-bezier(0.9647,0.2413,-0.0705,0.7911);
    transform: scale(0.9099999999999999);
  }
  51% {
    animation-timing-function: cubic-bezier(0.9226,0.2631,-0.0308,0.7628);
    transform: scale(1.02994);
  }
  100% {
    transform: scale(0.9099999999999999);
  }
}</style></svg>